<?xml version="1.0" encoding="UTF-8" standalone="no"?>
<!-- Created with Inkscape (http://www.inkscape.org/) -->

<svg
   xmlns:dc="http://purl.org/dc/elements/1.1/"
   xmlns:cc="http://creativecommons.org/ns#"
   xmlns:rdf="http://www.w3.org/1999/02/22-rdf-syntax-ns#"
   xmlns:svg="http://www.w3.org/2000/svg"
   xmlns="http://www.w3.org/2000/svg"
   xmlns:sodipodi="http://sodipodi.sourceforge.net/DTD/sodipodi-0.dtd"
   xmlns:inkscape="http://www.inkscape.org/namespaces/inkscape"
   width="210mm"
   height="297mm"
   id="svg2"
   version="1.1"
   inkscape:version="0.48.3.1 r9886"
   sodipodi:docname="SainSmart-BMP085.svg">
  <defs
     id="defs4" />
  <sodipodi:namedview
     id="base"
     pagecolor="#ffffff"
     bordercolor="#666666"
     borderopacity="1.0"
     inkscape:pageopacity="0.0"
     inkscape:pageshadow="2"
     inkscape:zoom="0.35"
     inkscape:cx="3133.233"
     inkscape:cy="302.30346"
     inkscape:document-units="px"
     inkscape:current-layer="layer1"
     showgrid="false"
     inkscape:window-width="1440"
     inkscape:window-height="822"
     inkscape:window-x="0"
     inkscape:window-y="24"
     inkscape:window-maximized="1" />
  <metadata
     id="metadata7">
    <rdf:RDF>
      <cc:Work
         rdf:about="">
        <dc:format>image/svg+xml</dc:format>
        <dc:type
           rdf:resource="http://purl.org/dc/dcmitype/StillImage" />
        <dc:title></dc:title>
      </cc:Work>
    </rdf:RDF>
  </metadata>
  <g
     inkscape:label="Calque 1"
     inkscape:groupmode="layer"
     id="layer1">
    <rect
       style="fill:#c8c8c8;fill-opacity:1;fill-rule:evenodd;stroke:#000000;stroke-width:1px;stroke-linecap:butt;stroke-linejoin:miter;stroke-opacity:1"
       id="rect3050"
       width="628.57141"
       height="731.42859"
       x="2354.5713"
       y="188.07648" />
    <path
       sodipodi:type="arc"
       style="fill:#e6e6e6;fill-rule:evenodd;stroke:none;stroke-width:1px;stroke-linecap:butt;stroke-linejoin:miter;stroke-opacity:1;fill-opacity:1"
       id="path3054"
       sodipodi:cx="2398.5715"
       sodipodi:cy="871.29077"
       sodipodi:rx="21.785715"
       sodipodi:ry="21.785715"
       d="m 2420.3572,871.29077 a 21.785715,21.785715 0 1 1 -43.5714,0 21.785715,21.785715 0 1 1 43.5714,0 z"
       transform="translate(0,-7.142866)" />
    <path
       transform="translate(90.535544,-7.142866)"
       sodipodi:type="arc"
       style="fill:#e6e6e6;fill-rule:evenodd;stroke:none;stroke-width:1px;stroke-linecap:butt;stroke-linejoin:miter;stroke-opacity:1;fill-opacity:1"
       id="path3054-7"
       sodipodi:cx="2398.5715"
       sodipodi:cy="871.29077"
       sodipodi:rx="21.785715"
       sodipodi:ry="21.785715"
       d="m 2420.3572,871.29077 a 21.785715,21.785715 0 1 1 -43.5714,0 21.785715,21.785715 0 1 1 43.5714,0 z" />
    <path
       transform="translate(181.07123,-7.142866)"
       sodipodi:type="arc"
       style="fill:#e6e6e6;fill-rule:evenodd;stroke:none;stroke-width:1px;stroke-linecap:butt;stroke-linejoin:miter;stroke-opacity:1;fill-opacity:1"
       id="path3054-4"
       sodipodi:cx="2398.5715"
       sodipodi:cy="871.29077"
       sodipodi:rx="21.785715"
       sodipodi:ry="21.785715"
       d="m 2420.3572,871.29077 a 21.785715,21.785715 0 1 1 -43.5714,0 21.785715,21.785715 0 1 1 43.5714,0 z" />
    <path
       transform="translate(271.60714,-7.142866)"
       sodipodi:type="arc"
       style="fill:#e6e6e6;fill-rule:evenodd;stroke:none;stroke-width:1px;stroke-linecap:butt;stroke-linejoin:miter;stroke-opacity:1;fill-opacity:1"
       id="path3054-0"
       sodipodi:cx="2398.5715"
       sodipodi:cy="871.29077"
       sodipodi:rx="21.785715"
       sodipodi:ry="21.785715"
       d="m 2420.3572,871.29077 a 21.785715,21.785715 0 1 1 -43.5714,0 21.785715,21.785715 0 1 1 43.5714,0 z" />
    <path
       transform="translate(362.14272,-7.142866)"
       sodipodi:type="arc"
       style="fill:#e6e6e6;fill-rule:evenodd;stroke:none;stroke-width:1px;stroke-linecap:butt;stroke-linejoin:miter;stroke-opacity:1;fill-opacity:1"
       id="path3054-72"
       sodipodi:cx="2398.5715"
       sodipodi:cy="871.29077"
       sodipodi:rx="21.785715"
       sodipodi:ry="21.785715"
       d="m 2420.3572,871.29077 a 21.785715,21.785715 0 1 1 -43.5714,0 21.785715,21.785715 0 1 1 43.5714,0 z" />
    <path
       transform="translate(452.6784,-7.142866)"
       sodipodi:type="arc"
       style="fill:#e6e6e6;fill-rule:evenodd;stroke:none;stroke-width:1px;stroke-linecap:butt;stroke-linejoin:miter;stroke-opacity:1;fill-opacity:1"
       id="path3054-5"
       sodipodi:cx="2398.5715"
       sodipodi:cy="871.29077"
       sodipodi:rx="21.785715"
       sodipodi:ry="21.785715"
       d="m 2420.3572,871.29077 a 21.785715,21.785715 0 1 1 -43.5714,0 21.785715,21.785715 0 1 1 43.5714,0 z" />
    <path
       transform="translate(543.21419,-7.142866)"
       sodipodi:type="arc"
       style="fill:#e6e6e6;fill-rule:evenodd;stroke:none;stroke-width:1px;stroke-linecap:butt;stroke-linejoin:miter;stroke-opacity:1;fill-opacity:1"
       id="path3054-6"
       sodipodi:cx="2398.5715"
       sodipodi:cy="871.29077"
       sodipodi:rx="21.785715"
       sodipodi:ry="21.785715"
       d="m 2420.3572,871.29077 a 21.785715,21.785715 0 1 1 -43.5714,0 21.785715,21.785715 0 1 1 43.5714,0 z" />
    <rect
       style="fill:#000000;fill-rule:evenodd;stroke:#000000;stroke-width:1px;stroke-linecap:butt;stroke-linejoin:miter;stroke-opacity:1;fill-opacity:1"
       id="rect3109"
       width="38.571323"
       height="65.714302"
       x="2405.7144"
       y="593.07648" />
    <rect
       style="fill:#000000;fill-rule:evenodd;stroke:#000000;stroke-width:1px;stroke-linecap:butt;stroke-linejoin:miter;stroke-opacity:1;fill-opacity:1"
       id="rect3109-0"
       width="38.571323"
       height="65.714302"
       x="2503.5715"
       y="593.07648" />
    <rect
       style="fill:#000000;fill-rule:evenodd;stroke:#000000;stroke-width:1px;stroke-linecap:butt;stroke-linejoin:miter;stroke-opacity:1;fill-opacity:1"
       id="rect3109-1"
       width="38.571323"
       height="65.714302"
       x="2612.1431"
       y="593.07648" />
    <rect
       style="fill:#000000;fill-rule:evenodd;stroke:#000000;stroke-width:1px;stroke-linecap:butt;stroke-linejoin:miter;stroke-opacity:1;fill-opacity:1"
       id="rect3109-10"
       width="38.571323"
       height="65.714302"
       x="2719.2856"
       y="593.07648" />
    <rect
       style="fill:#000000;fill-rule:evenodd;stroke:#000000;stroke-width:1px;stroke-linecap:butt;stroke-linejoin:miter;stroke-opacity:1;fill-opacity:1"
       id="rect3109-2"
       width="38.571323"
       height="65.714302"
       x="2867.8572"
       y="422.36218" />
    <rect
       style="fill:#7d7d7d;fill-rule:evenodd;stroke:#000000;stroke-width:1px;stroke-linecap:butt;stroke-linejoin:miter;stroke-opacity:1;fill-opacity:1"
       id="rect3150"
       width="168.57143"
       height="178.57143"
       x="2555.7144"
       y="305.21933" />
    <path
       sodipodi:type="arc"
       style="fill:#000000;fill-rule:evenodd;stroke:#000000;stroke-width:1px;stroke-linecap:butt;stroke-linejoin:miter;stroke-opacity:1;fill-opacity:1"
       id="path3152"
       sodipodi:cx="2642.8572"
       sodipodi:cy="392.36218"
       sodipodi:rx="20"
       sodipodi:ry="20"
       d="m 2662.8572,392.36218 a 20,20 0 1 1 -40,0 20,20 0 1 1 40,0 z" />
    <path
       sodipodi:type="arc"
       style="fill:#e6e6e6;fill-rule:evenodd;stroke:none;stroke-width:1px;stroke-linecap:butt;stroke-linejoin:miter;stroke-opacity:1;fill-opacity:1"
       id="path3154"
       sodipodi:cx="2422.8572"
       sodipodi:cy="283.79074"
       sodipodi:rx="51.42857"
       sodipodi:ry="51.42857"
       d="m 2474.2857,283.79074 a 51.42857,51.42857 0 1 1 -102.8571,0 51.42857,51.42857 0 1 1 102.8571,0 z"
       transform="translate(6,-6.4285645)" />
    <path
       transform="translate(481.71425,-6.4285645)"
       sodipodi:type="arc"
       style="fill:#e6e6e6;fill-opacity:1;fill-rule:evenodd;stroke:none"
       id="path3154-3"
       sodipodi:cx="2422.8572"
       sodipodi:cy="283.79074"
       sodipodi:rx="51.42857"
       sodipodi:ry="51.42857"
       d="m 2474.2857,283.79074 a 51.42857,51.42857 0 1 1 -102.8571,0 51.42857,51.42857 0 1 1 102.8571,0 z" />
    <path
       sodipodi:type="arc"
       style="fill:#e6e6e6;fill-rule:evenodd;stroke:none;stroke-width:1px;stroke-linecap:butt;stroke-linejoin:miter;stroke-opacity:1;fill-opacity:1"
       id="path3174"
       sodipodi:cx="2423.2144"
       sodipodi:cy="583.07648"
       sodipodi:rx="7.6785712"
       sodipodi:ry="7.6785712"
       d="m 2430.8929,583.07648 a 7.6785712,7.6785712 0 1 1 -15.3571,0 7.6785712,7.6785712 0 1 1 15.3571,0 z"
       transform="translate(0,-5.0000045)" />
    <path
       transform="translate(1.7856444,94.285705)"
       sodipodi:type="arc"
       style="fill:#e6e6e6;fill-rule:evenodd;stroke:none;stroke-width:1px;stroke-linecap:butt;stroke-linejoin:miter;stroke-opacity:1;fill-opacity:1"
       id="path3174-3"
       sodipodi:cx="2423.2144"
       sodipodi:cy="583.07648"
       sodipodi:rx="7.6785712"
       sodipodi:ry="7.6785712"
       d="m 2430.8929,583.07648 a 7.6785712,7.6785712 0 1 1 -15.3571,0 7.6785712,7.6785712 0 1 1 15.3571,0 z" />
    <path
       transform="translate(103.21422,94.285705)"
       sodipodi:type="arc"
       style="fill:#e6e6e6;fill-rule:evenodd;stroke:none;stroke-width:1px;stroke-linecap:butt;stroke-linejoin:miter;stroke-opacity:1;fill-opacity:1"
       id="path3174-8"
       sodipodi:cx="2423.2144"
       sodipodi:cy="583.07648"
       sodipodi:rx="7.6785712"
       sodipodi:ry="7.6785712"
       d="m 2430.8929,583.07648 a 7.6785712,7.6785712 0 1 1 -15.3571,0 7.6785712,7.6785712 0 1 1 15.3571,0 z" />
    <path
       transform="translate(100.35707,-5.0000045)"
       sodipodi:type="arc"
       style="fill:#e6e6e6;fill-rule:evenodd;stroke:none;stroke-width:1px;stroke-linecap:butt;stroke-linejoin:miter;stroke-opacity:1;fill-opacity:1"
       id="path3174-9"
       sodipodi:cx="2423.2144"
       sodipodi:cy="583.07648"
       sodipodi:rx="7.6785712"
       sodipodi:ry="7.6785712"
       d="m 2430.8929,583.07648 a 7.6785712,7.6785712 0 1 1 -15.3571,0 7.6785712,7.6785712 0 1 1 15.3571,0 z" />
    <path
       transform="translate(207.49993,-5.0000045)"
       sodipodi:type="arc"
       style="fill:#e6e6e6;fill-rule:evenodd;stroke:none;stroke-width:1px;stroke-linecap:butt;stroke-linejoin:miter;stroke-opacity:1;fill-opacity:1"
       id="path3174-1"
       sodipodi:cx="2423.2144"
       sodipodi:cy="583.07648"
       sodipodi:rx="7.6785712"
       sodipodi:ry="7.6785712"
       d="m 2430.8929,583.07648 a 7.6785712,7.6785712 0 1 1 -15.3571,0 7.6785712,7.6785712 0 1 1 15.3571,0 z" />
    <path
       transform="translate(210.35708,94.285705)"
       sodipodi:type="arc"
       style="fill:#e6e6e6;fill-rule:evenodd;stroke:none;stroke-width:1px;stroke-linecap:butt;stroke-linejoin:miter;stroke-opacity:1;fill-opacity:1"
       id="path3174-83"
       sodipodi:cx="2423.2144"
       sodipodi:cy="583.07648"
       sodipodi:rx="7.6785712"
       sodipodi:ry="7.6785712"
       d="m 2430.8929,583.07648 a 7.6785712,7.6785712 0 1 1 -15.3571,0 7.6785712,7.6785712 0 1 1 15.3571,0 z" />
    <path
       transform="translate(313.9285,94.285705)"
       sodipodi:type="arc"
       style="fill:#e6e6e6;fill-rule:evenodd;stroke:none;stroke-width:1px;stroke-linecap:butt;stroke-linejoin:miter;stroke-opacity:1;fill-opacity:1"
       id="path3174-7"
       sodipodi:cx="2423.2144"
       sodipodi:cy="583.07648"
       sodipodi:rx="7.6785712"
       sodipodi:ry="7.6785712"
       d="m 2430.8929,583.07648 a 7.6785712,7.6785712 0 1 1 -15.3571,0 7.6785712,7.6785712 0 1 1 15.3571,0 z" />
    <path
       transform="translate(314.64279,-5.0000045)"
       sodipodi:type="arc"
       style="fill:#e6e6e6;fill-rule:evenodd;stroke:none;stroke-width:1px;stroke-linecap:butt;stroke-linejoin:miter;stroke-opacity:1;fill-opacity:1"
       id="path3174-80"
       sodipodi:cx="2423.2144"
       sodipodi:cy="583.07648"
       sodipodi:rx="7.6785712"
       sodipodi:ry="7.6785712"
       d="m 2430.8929,583.07648 a 7.6785712,7.6785712 0 1 1 -15.3571,0 7.6785712,7.6785712 0 1 1 15.3571,0 z" />
    <path
       transform="translate(463.92848,-76.42858)"
       sodipodi:type="arc"
       style="fill:#e6e6e6;fill-rule:evenodd;stroke:none;stroke-width:1px;stroke-linecap:butt;stroke-linejoin:miter;stroke-opacity:1;fill-opacity:1"
       id="path3174-7-3"
       sodipodi:cx="2423.2144"
       sodipodi:cy="583.07648"
       sodipodi:rx="7.6785712"
       sodipodi:ry="7.6785712"
       d="m 2430.8929,583.07648 a 7.6785712,7.6785712 0 1 1 -15.3571,0 7.6785712,7.6785712 0 1 1 15.3571,0 z" />
    <path
       transform="translate(463.92848,-175.00001)"
       sodipodi:type="arc"
       style="fill:#e6e6e6;fill-rule:evenodd;stroke:none;stroke-width:1px;stroke-linecap:butt;stroke-linejoin:miter;stroke-opacity:1;fill-opacity:1"
       id="path3174-7-33"
       sodipodi:cx="2423.2144"
       sodipodi:cy="583.07648"
       sodipodi:rx="7.6785712"
       sodipodi:ry="7.6785712"
       d="m 2430.8929,583.07648 a 7.6785712,7.6785712 0 1 1 -15.3571,0 7.6785712,7.6785712 0 1 1 15.3571,0 z" />
    <rect
       style="fill:#000000;fill-rule:evenodd;stroke:#000000;stroke-width:1px;stroke-linecap:butt;stroke-linejoin:miter;stroke-opacity:1;fill-opacity:1"
       id="rect3261"
       width="60.714287"
       height="104.28571"
       x="2846.4285"
       y="603.07648" />
    <path
       transform="translate(405.71422,37.857134)"
       sodipodi:type="arc"
       style="fill:#e6e6e6;fill-rule:evenodd;stroke:none;stroke-width:1px;stroke-linecap:butt;stroke-linejoin:miter;stroke-opacity:1;fill-opacity:1"
       id="path3174-80-6"
       sodipodi:cx="2423.2144"
       sodipodi:cy="583.07648"
       sodipodi:rx="7.6785712"
       sodipodi:ry="7.6785712"
       d="m 2430.8929,583.07648 a 7.6785712,7.6785712 0 1 1 -15.3571,0 7.6785712,7.6785712 0 1 1 15.3571,0 z" />
    <path
       transform="translate(405.71422,72.142857)"
       sodipodi:type="arc"
       style="fill:#e6e6e6;fill-rule:evenodd;stroke:none;stroke-width:1px;stroke-linecap:butt;stroke-linejoin:miter;stroke-opacity:1;fill-opacity:1"
       id="path3174-80-2"
       sodipodi:cx="2423.2144"
       sodipodi:cy="583.07648"
       sodipodi:rx="7.6785712"
       sodipodi:ry="7.6785712"
       d="m 2430.8929,583.07648 a 7.6785712,7.6785712 0 1 1 -15.3571,0 7.6785712,7.6785712 0 1 1 15.3571,0 z" />
    <path
       transform="translate(405.71422,104.99999)"
       sodipodi:type="arc"
       style="fill:#e6e6e6;fill-rule:evenodd;stroke:none;stroke-width:1px;stroke-linecap:butt;stroke-linejoin:miter;stroke-opacity:1;fill-opacity:1"
       id="path3174-80-4"
       sodipodi:cx="2423.2144"
       sodipodi:cy="583.07648"
       sodipodi:rx="7.6785712"
       sodipodi:ry="7.6785712"
       d="m 2430.8929,583.07648 a 7.6785712,7.6785712 0 1 1 -15.3571,0 7.6785712,7.6785712 0 1 1 15.3571,0 z" />
    <path
       transform="translate(501.07136,72.142857)"
       sodipodi:type="arc"
       style="fill:#e6e6e6;fill-rule:evenodd;stroke:none;stroke-width:1px;stroke-linecap:butt;stroke-linejoin:miter;stroke-opacity:1;fill-opacity:1"
       id="path3174-80-1"
       sodipodi:cx="2423.2144"
       sodipodi:cy="583.07648"
       sodipodi:rx="7.6785712"
       sodipodi:ry="7.6785712"
       d="m 2430.8929,583.07648 a 7.6785712,7.6785712 0 1 1 -15.3571,0 7.6785712,7.6785712 0 1 1 15.3571,0 z" />
    <rect
       style="fill:none;stroke:#000000;stroke-width:8;stroke-linecap:butt;stroke-linejoin:miter;stroke-miterlimit:3.5999999;stroke-opacity:1;stroke-dasharray:none"
       id="rect3302"
       width="80.714287"
       height="169.28572"
       x="2385"
       y="543.61218" />
    <rect
       style="fill:none;stroke:#000000;stroke-width:8;stroke-linecap:butt;stroke-linejoin:miter;stroke-miterlimit:4;stroke-opacity:1;stroke-dasharray:none"
       id="rect3302-2"
       width="80.714287"
       height="169.28572"
       x="2485.3572"
       y="543.61218" />
    <rect
       style="fill:none;stroke:#000000;stroke-width:8;stroke-linecap:butt;stroke-linejoin:miter;stroke-miterlimit:4;stroke-opacity:1;stroke-dasharray:none"
       id="rect3302-5"
       width="80.714287"
       height="169.28572"
       x="2591.0715"
       y="543.61218" />
    <rect
       style="fill:none;stroke:#000000;stroke-width:8;stroke-linecap:butt;stroke-linejoin:miter;stroke-miterlimit:4;stroke-opacity:1;stroke-dasharray:none"
       id="rect3302-57"
       width="80.714287"
       height="169.28572"
       x="2696.7856"
       y="543.61218" />
    <rect
       style="fill:none;stroke:#000000;stroke-width:8;stroke-linecap:butt;stroke-linejoin:miter;stroke-miterlimit:4;stroke-opacity:1;stroke-dasharray:none"
       id="rect3302-0"
       width="80.714287"
       height="169.28572"
       x="2845.9285"
       y="373.00504" />
    <text
       xml:space="preserve"
       style="font-size:40px;font-style:normal;font-weight:normal;line-height:125%;letter-spacing:0px;word-spacing:0px;fill:#000000;fill-opacity:1;stroke:none;font-family:Sans"
       x="755.72296"
       y="-2923.2104"
       id="text4130"
       sodipodi:linespacing="125%"
       transform="matrix(0,1,-1,0,0,0)"><tspan
         sodipodi:role="line"
         id="tspan4132"
         x="755.72296"
         y="-2923.2104">5V</tspan></text>
    <text
       xml:space="preserve"
       style="font-size:40px;font-style:normal;font-weight:normal;line-height:125%;letter-spacing:0px;word-spacing:0px;fill:#000000;fill-opacity:1;stroke:none;font-family:Sans"
       x="736.64093"
       y="-2831.7429"
       id="text4134"
       sodipodi:linespacing="125%"
       transform="matrix(0,1,-1,0,0,0)"><tspan
         sodipodi:role="line"
         id="tspan4136"
         x="736.64093"
         y="-2831.7429">3.3V</tspan></text>
    <text
       xml:space="preserve"
       style="font-size:40px;font-style:normal;font-weight:normal;line-height:125%;letter-spacing:0px;word-spacing:0px;fill:#000000;fill-opacity:1;stroke:none;font-family:Sans"
       x="737.70538"
       y="-2745.5356"
       id="text4138"
       sodipodi:linespacing="125%"
       transform="matrix(0,1,-1,0,0,0)"><tspan
         sodipodi:role="line"
         id="tspan4140"
         x="737.70538"
         y="-2745.5356">GND</tspan></text>
    <text
       xml:space="preserve"
       style="font-size:40px;font-style:normal;font-weight:normal;line-height:125%;letter-spacing:0px;word-spacing:0px;fill:#000000;fill-opacity:1;stroke:none;font-family:Sans"
       x="740.94757"
       y="-2655.178"
       id="text4142"
       sodipodi:linespacing="125%"
       transform="matrix(0,1,-1,0,0,0)"
       inkscape:transform-center-x="122.85714"
       inkscape:transform-center-y="-31.428571"><tspan
         sodipodi:role="line"
         id="tspan4144"
         x="740.94757"
         y="-2655.178">SDA</tspan></text>
    <text
       xml:space="preserve"
       style="font-size:40px;font-style:normal;font-weight:normal;line-height:125%;letter-spacing:0px;word-spacing:0px;fill:#000000;fill-opacity:1;stroke:none;font-family:Sans"
       x="744.48273"
       y="-2564.4727"
       id="text4146"
       sodipodi:linespacing="125%"
       transform="matrix(0,1,-1,0,0,0)"
       inkscape:transform-center-x="152.85714"
       inkscape:transform-center-y="-22.857143"><tspan
         sodipodi:role="line"
         id="tspan4148"
         x="744.48273"
         y="-2564.4727">SCL</tspan></text>
    <text
       xml:space="preserve"
       style="font-size:40px;font-style:normal;font-weight:normal;line-height:125%;letter-spacing:0px;word-spacing:0px;fill:#000000;fill-opacity:1;stroke:none;font-family:Sans"
       x="732.2171"
       y="-2476.7383"
       id="text4150"
       sodipodi:linespacing="125%"
       transform="matrix(0,1,-1,0,0,0)"
       inkscape:transform-center-x="71.428571"
       inkscape:transform-center-y="-42.857143"><tspan
         sodipodi:role="line"
         id="tspan4152"
         x="732.2171"
         y="-2476.7383">XCLR</tspan></text>
    <text
       xml:space="preserve"
       style="font-size:40px;font-style:normal;font-weight:normal;line-height:125%;letter-spacing:0px;word-spacing:0px;fill:#000000;fill-opacity:1;stroke:none;font-family:Sans"
       x="740.27374"
       y="-2382.9673"
       id="text4154"
       sodipodi:linespacing="125%"
       transform="matrix(0,1,-1,0,0,0)"><tspan
         sodipodi:role="line"
         id="tspan4156"
         x="740.27374"
         y="-2382.9673">EOC</tspan></text>
  </g>
</svg>
